<svg xmlns="http://www.w3.org/2000/svg" xmlns:xlink="http://www.w3.org/1999/xlink" width="512" zoomAndPan="magnify" viewBox="0 0 384 383.999986" height="512" preserveAspectRatio="xMidYMid meet" version="1.0"><defs><g/><clipPath id="7ca21e042f"><path d="M 1.449219 20.449219 L 383.949219 20.449219 L 383.949219 362.449219 L 1.449219 362.449219 Z M 1.449219 20.449219 " clip-rule="nonzero"/></clipPath><clipPath id="fd5417d0dd"><path d="M 1.121094 19.664062 L 385.867188 20.335938 L 385.269531 363.835938 L 0.519531 363.164062 Z M 1.121094 19.664062 " clip-rule="nonzero"/></clipPath><clipPath id="c81534bfe8"><path d="M -86.433594 -92.238281 L 474.5625 -91.257812 L 473.585938 469.742188 L -87.414062 468.761719 Z M -86.433594 -92.238281 " clip-rule="nonzero"/></clipPath><clipPath id="6f5ee45c38"><path d="M 2 20.449219 L 383.949219 20.449219 L 383.949219 360 L 2 360 Z M 2 20.449219 " clip-rule="nonzero"/></clipPath><clipPath id="04d82a0db4"><path d="M 1.121094 19.664062 L 385.867188 20.335938 L 385.269531 363.835938 L 0.519531 363.164062 Z M 1.121094 19.664062 " clip-rule="nonzero"/></clipPath><clipPath id="85985c3ce4"><path d="M -86.433594 -92.238281 L 474.5625 -91.257812 L 473.585938 469.742188 L -87.414062 468.761719 Z M -86.433594 -92.238281 " clip-rule="nonzero"/></clipPath><clipPath id="43b6a9672c"><path d="M 1.449219 20.449219 L 383.949219 20.449219 L 383.949219 362.449219 L 1.449219 362.449219 Z M 1.449219 20.449219 " clip-rule="nonzero"/></clipPath><clipPath id="c309e2862b"><path d="M 1.121094 19.664062 L 385.867188 20.335938 L 385.269531 363.835938 L 0.519531 363.164062 Z M 1.121094 19.664062 " clip-rule="nonzero"/></clipPath><clipPath id="cc8af0812a"><path d="M -86.433594 -92.238281 L 474.5625 -91.257812 L 473.585938 469.742188 L -87.414062 468.761719 Z M -86.433594 -92.238281 " clip-rule="nonzero"/></clipPath><clipPath id="63752549ea"><path d="M 109 99 L 165 99 L 165 155 L 109 155 Z M 109 99 " clip-rule="nonzero"/></clipPath><clipPath id="0bb4b05058"><path d="M 1.121094 19.664062 L 385.867188 20.335938 L 385.269531 363.835938 L 0.519531 363.164062 Z M 1.121094 19.664062 " clip-rule="nonzero"/></clipPath><clipPath id="bd60d1ddc4"><path d="M -86.433594 -92.238281 L 474.5625 -91.257812 L 473.585938 469.742188 L -87.414062 468.761719 Z M -86.433594 -92.238281 " clip-rule="nonzero"/></clipPath><clipPath id="008cd32af8"><path d="M 169 83 L 222 83 L 222 171 L 169 171 Z M 169 83 " clip-rule="nonzero"/></clipPath><clipPath id="3b0ca7afb4"><path d="M 1.121094 19.664062 L 385.867188 20.335938 L 385.269531 363.835938 L 0.519531 363.164062 Z M 1.121094 19.664062 " clip-rule="nonzero"/></clipPath><clipPath id="964c560dad"><path d="M -86.433594 -92.238281 L 474.5625 -91.257812 L 473.585938 469.742188 L -87.414062 468.761719 Z M -86.433594 -92.238281 " clip-rule="nonzero"/></clipPath><clipPath id="85599fa2f3"><path d="M 228 83 L 281 83 L 281 171 L 228 171 Z M 228 83 " clip-rule="nonzero"/></clipPath><clipPath id="73ed54935f"><path d="M 1.121094 19.664062 L 385.867188 20.335938 L 385.269531 363.835938 L 0.519531 363.164062 Z M 1.121094 19.664062 " clip-rule="nonzero"/></clipPath><clipPath id="442fafd991"><path d="M -86.433594 -92.238281 L 474.5625 -91.257812 L 473.585938 469.742188 L -87.414062 468.761719 Z M -86.433594 -92.238281 " clip-rule="nonzero"/></clipPath><clipPath id="16b7fdbbb5"><path d="M 124 235 L 164 235 L 164 282 L 124 282 Z M 124 235 " clip-rule="nonzero"/></clipPath><clipPath id="8de9b5694d"><path d="M 1.121094 19.664062 L 385.867188 20.335938 L 385.269531 363.835938 L 0.519531 363.164062 Z M 1.121094 19.664062 " clip-rule="nonzero"/></clipPath><clipPath id="fd9d8ce157"><path d="M -86.433594 -92.238281 L 474.5625 -91.257812 L 473.585938 469.742188 L -87.414062 468.761719 Z M -86.433594 -92.238281 " clip-rule="nonzero"/></clipPath><clipPath id="eb35dadc57"><path d="M 177 280 L 178 280 L 178 281 L 177 281 Z M 177 280 " clip-rule="nonzero"/></clipPath><clipPath id="dab10851df"><path d="M 1.121094 19.664062 L 385.867188 20.335938 L 385.269531 363.835938 L 0.519531 363.164062 Z M 1.121094 19.664062 " clip-rule="nonzero"/></clipPath><clipPath id="1c104ca02b"><path d="M -86.433594 -92.238281 L 474.5625 -91.257812 L 473.585938 469.742188 L -87.414062 468.761719 Z M -86.433594 -92.238281 " clip-rule="nonzero"/></clipPath><clipPath id="4f989fe57a"><path d="M 218 235 L 249 235 L 249 282 L 218 282 Z M 218 235 " clip-rule="nonzero"/></clipPath><clipPath id="6c03b6e370"><path d="M 1.121094 19.664062 L 385.867188 20.335938 L 385.269531 363.835938 L 0.519531 363.164062 Z M 1.121094 19.664062 " clip-rule="nonzero"/></clipPath><clipPath id="2cf70e17f0"><path d="M -86.433594 -92.238281 L 474.5625 -91.257812 L 473.585938 469.742188 L -87.414062 468.761719 Z M -86.433594 -92.238281 " clip-rule="nonzero"/></clipPath></defs><g clip-path="url(#7ca21e042f)"><g clip-path="url(#fd5417d0dd)"><g clip-path="url(#c81534bfe8)"><path fill="#0a0a0a" d="M -86.433594 -92.238281 L 474.5625 -91.257812 L 473.585938 469.742188 L -87.414062 468.761719 Z M -86.433594 -92.238281 " fill-opacity="1" fill-rule="nonzero"/></g></g></g><g clip-path="url(#6f5ee45c38)"><g clip-path="url(#04d82a0db4)"><g clip-path="url(#85985c3ce4)"><path fill="#131b2e" d="M 38.285156 17.550781 L 349.460938 18.09375 C 350.609375 18.097656 351.757812 18.152344 352.898438 18.269531 C 354.042969 18.382812 355.175781 18.554688 356.300781 18.78125 C 357.425781 19.003906 358.539062 19.285156 359.636719 19.621094 C 360.734375 19.957031 361.816406 20.34375 362.875 20.785156 C 363.9375 21.226562 364.972656 21.71875 365.984375 22.261719 C 366.996094 22.804688 367.976562 23.398438 368.933594 24.035156 C 369.886719 24.675781 370.804688 25.363281 371.691406 26.089844 C 372.578125 26.820312 373.425781 27.59375 374.238281 28.40625 C 375.046875 29.21875 375.816406 30.070312 376.542969 30.960938 C 377.269531 31.847656 377.953125 32.773438 378.589844 33.726562 C 379.226562 34.683594 379.8125 35.667969 380.351562 36.683594 C 380.890625 37.695312 381.378906 38.734375 381.816406 39.796875 C 382.253906 40.855469 382.640625 41.9375 382.972656 43.035156 C 383.304688 44.136719 383.578125 45.25 383.800781 46.375 C 384.023438 47.503906 384.191406 48.636719 384.300781 49.78125 C 384.410156 50.921875 384.464844 52.070312 384.464844 53.21875 L 383.988281 324.953125 C 383.988281 326.101562 383.929688 327.246094 383.816406 328.386719 C 383.699219 329.53125 383.53125 330.664062 383.304688 331.789062 C 383.078125 332.917969 382.796875 334.027344 382.460938 335.125 C 382.125 336.226562 381.738281 337.304688 381.296875 338.363281 C 380.855469 339.425781 380.363281 340.460938 379.820312 341.472656 C 379.277344 342.484375 378.6875 343.46875 378.046875 344.421875 C 377.40625 345.375 376.722656 346.292969 375.992188 347.179688 C 375.261719 348.066406 374.488281 348.914062 373.675781 349.726562 C 372.863281 350.535156 372.011719 351.304688 371.121094 352.03125 C 370.234375 352.757812 369.3125 353.441406 368.355469 354.078125 C 367.398438 354.714844 366.414062 355.300781 365.402344 355.839844 C 364.386719 356.382812 363.351562 356.871094 362.289062 357.308594 C 361.226562 357.746094 360.144531 358.128906 359.046875 358.460938 C 357.945312 358.792969 356.832031 359.070312 355.707031 359.289062 C 354.582031 359.511719 353.445312 359.679688 352.304688 359.789062 C 351.160156 359.902344 350.015625 359.953125 348.867188 359.953125 L 37.6875 359.410156 C 36.539062 359.40625 35.394531 359.347656 34.25 359.234375 C 33.109375 359.121094 31.972656 358.949219 30.847656 358.722656 C 29.722656 358.496094 28.609375 358.21875 27.511719 357.882812 C 26.414062 357.546875 25.332031 357.160156 24.273438 356.71875 C 23.214844 356.277344 22.175781 355.785156 21.164062 355.242188 C 20.152344 354.699219 19.171875 354.105469 18.21875 353.464844 C 17.261719 352.828125 16.34375 352.140625 15.457031 351.410156 C 14.570312 350.683594 13.722656 349.910156 12.910156 349.097656 C 12.101562 348.285156 11.332031 347.433594 10.605469 346.542969 C 9.878906 345.652344 9.195312 344.730469 8.558594 343.777344 C 7.925781 342.820312 7.335938 341.835938 6.796875 340.820312 C 6.257812 339.808594 5.769531 338.769531 5.332031 337.707031 C 4.894531 336.648438 4.507812 335.566406 4.175781 334.464844 C 3.847656 333.367188 3.570312 332.253906 3.347656 331.128906 C 3.125 330 2.957031 328.867188 2.847656 327.722656 C 2.738281 326.578125 2.683594 325.433594 2.683594 324.285156 L 3.160156 52.550781 C 3.160156 51.402344 3.21875 50.257812 3.335938 49.117188 C 3.449219 47.972656 3.621094 46.839844 3.84375 45.710938 C 4.070312 44.585938 4.351562 43.476562 4.6875 42.375 C 5.023438 41.277344 5.410156 40.199219 5.851562 39.140625 C 6.292969 38.078125 6.785156 37.042969 7.328125 36.03125 C 7.871094 35.019531 8.464844 34.035156 9.101562 33.082031 C 9.742188 32.128906 10.425781 31.207031 11.15625 30.324219 C 11.886719 29.4375 12.660156 28.585938 13.472656 27.777344 C 14.285156 26.964844 15.136719 26.199219 16.027344 25.472656 C 16.914062 24.742188 17.835938 24.0625 18.792969 23.425781 C 19.75 22.789062 20.734375 22.203125 21.746094 21.660156 C 22.761719 21.121094 23.800781 20.632812 24.859375 20.195312 C 25.921875 19.757812 27.003906 19.375 28.101562 19.042969 C 29.203125 18.710938 30.316406 18.433594 31.441406 18.210938 C 32.570312 17.992188 33.703125 17.824219 34.847656 17.714844 C 35.988281 17.601562 37.136719 17.546875 38.285156 17.550781 Z M 38.285156 17.550781 " fill-opacity="1" fill-rule="nonzero"/></g></g></g><g clip-path="url(#43b6a9672c)"><g clip-path="url(#c309e2862b)"><g clip-path="url(#cc8af0812a)"><path stroke-linecap="butt" transform="matrix(1.095701, 0.00191236, -0.00191236, 1.095701, -86.435472, -92.237381)" fill="none" stroke-linejoin="miter" d="M 114.001748 100.000016 L 397.998652 99.999892 C 399.046785 100.001628 400.094999 100.04971 401.136183 100.154844 C 402.180925 100.256408 403.215065 100.411466 404.242163 100.616447 C 405.269254 100.817864 406.285743 101.072774 407.28806 101.377621 C 408.290376 101.682467 409.278513 102.033685 410.245346 102.43485 C 411.215745 102.836009 412.161269 103.283557 413.085484 103.777489 C 414.009699 104.27142 414.905474 104.811747 415.779927 105.391327 C 416.650822 105.974478 417.489705 106.600466 418.300131 107.262154 C 419.110562 107.927408 419.885412 108.631939 420.628238 109.372176 C 421.367499 110.11242 422.071172 110.888377 422.735691 111.700053 C 423.400204 112.508164 424.025564 113.351993 424.608187 114.220853 C 425.190815 115.093278 425.727142 115.990739 426.220738 116.916795 C 426.714327 117.839287 427.161614 118.786814 427.562593 119.755813 C 427.963566 120.721246 428.31823 121.708151 428.623009 122.709404 C 428.927793 123.714221 429.17912 124.729827 429.384121 125.756209 C 429.589127 126.786156 429.744229 127.819755 429.845874 128.864142 C 429.947512 129.904965 429.999252 130.953005 430.001082 132.001131 L 429.998986 380.001545 C 430.000816 381.049672 429.949163 382.094327 429.847593 383.135504 C 429.742464 384.180253 429.590971 385.214387 429.38599 386.241485 C 429.181015 387.272147 428.926098 388.285071 428.621251 389.287388 C 428.316411 390.293269 427.965188 391.277841 427.564023 392.244674 C 427.162864 393.215073 426.715315 394.160597 426.221384 395.084812 C 425.727452 396.009027 425.190697 396.908361 424.607545 397.779255 C 424.024394 398.65015 423.401971 399.489027 422.736718 400.299459 C 422.071465 401.10989 421.366934 401.88474 420.626696 402.627566 C 419.886452 403.366827 419.110495 404.0705 418.298819 404.735019 C 417.490709 405.399532 416.650444 406.024886 415.778019 406.607515 C 414.905594 407.190143 414.008133 407.72647 413.085642 408.22006 C 412.159592 408.71722 411.21563 409.164501 410.246631 409.56548 C 409.277632 409.966459 408.290721 410.317558 407.289469 410.622337 C 406.284651 410.927121 405.269052 411.182014 404.242664 411.383449 C 403.216282 411.588449 402.179118 411.743557 401.138295 411.845196 C 400.093914 411.950405 399.049433 411.998574 398.001306 412.000404 L 114.000837 412.000534 C 112.952704 411.998798 111.908048 411.947145 110.863306 411.845582 C 109.822129 411.744012 108.784423 411.58896 107.757326 411.383979 C 106.730229 411.178998 105.713745 410.927652 104.711429 410.622805 C 103.709113 410.317959 102.720976 409.966742 101.754142 409.565576 C 100.787309 409.164411 99.838219 408.716869 98.914005 408.222938 C 97.98979 407.729006 97.094015 407.188679 96.22312 406.605528 C 95.348667 406.025948 94.509783 405.39996 93.699352 404.734707 C 92.888926 404.073019 92.114077 403.368488 91.371251 402.62825 C 90.63199 401.888006 89.928317 401.112049 89.263798 400.300373 C 88.599278 399.488698 87.973925 398.648433 87.391302 397.779573 C 86.812238 396.907142 86.272347 396.009687 85.778751 395.083631 C 85.285162 394.16114 84.837874 393.213612 84.436895 392.244613 C 84.035923 391.27918 83.681259 390.292275 83.376474 389.287458 C 83.075261 388.286199 82.820368 387.270599 82.615368 386.244218 C 82.410362 385.214271 82.25526 384.180672 82.153615 383.136284 C 82.05197 382.091896 82.000236 381.047422 81.998407 379.999295 L 82.000502 131.998881 C 81.998673 130.950754 82.050326 129.906099 82.155461 128.864916 C 82.257024 127.820173 82.412082 126.786033 82.613492 125.755377 C 82.818474 124.728279 83.073391 123.715355 83.378231 122.709474 C 83.683078 121.707157 84.034301 120.722585 84.435466 119.755752 C 84.836625 118.785353 85.284174 117.839829 85.778105 116.915614 C 86.272036 115.991399 86.812357 115.092059 87.391943 114.221171 C 87.975095 113.350276 88.597511 112.507834 89.262771 111.700967 C 89.928024 110.890536 90.632549 110.112121 91.372793 109.37286 C 92.113031 108.630034 92.888993 107.929926 93.700669 107.265407 C 94.508774 106.597329 95.349045 105.97554 96.221469 105.392912 C 97.093894 104.810283 97.991355 104.273956 98.91384 103.776802 C 99.839897 103.283206 100.787424 102.835919 101.752858 102.434946 C 102.721857 102.033967 103.708768 101.682868 104.71002 101.37809 C 105.714837 101.073305 106.730437 100.818413 107.756819 100.613412 C 108.786772 100.411971 109.820371 100.256869 110.864759 100.155224 C 111.905575 100.050021 112.953615 99.998281 114.001748 100.000016 Z M 114.001748 100.000016 " stroke="#2a3a5c" stroke-width="2" stroke-opacity="1" stroke-miterlimit="4"/></g></g></g><g clip-path="url(#63752549ea)"><g clip-path="url(#0bb4b05058)"><g clip-path="url(#bd60d1ddc4)"><g fill="#4ade80" fill-opacity="1"><g transform="translate(105.194687, 160.109161)"><g><path d="M 4.59375 -47.546875 L 4.625 -60.390625 L 58.875 -38.921875 L 58.859375 -26.796875 L 4.53125 -5.578125 L 4.546875 -18.375 L 45.421875 -32.84375 Z M 4.59375 -47.546875 "/></g></g></g></g></g></g><g clip-path="url(#008cd32af8)"><g clip-path="url(#3b0ca7afb4)"><g clip-path="url(#964c560dad)"><g fill="#4ade80" fill-opacity="1"><g transform="translate(164.139996, 160.21204)"><g><path d="M 46.3125 -76.609375 L 57.671875 -76.59375 L 17.140625 9.796875 L 5.78125 9.78125 Z M 46.3125 -76.609375 "/></g></g></g></g></g></g><g clip-path="url(#85599fa2f3)"><g clip-path="url(#73ed54935f)"><g clip-path="url(#442fafd991)"><g fill="#4ade80" fill-opacity="1"><g transform="translate(223.085304, 160.314919)"><g><path d="M 46.3125 -76.609375 L 57.671875 -76.59375 L 17.140625 9.796875 L 5.78125 9.78125 Z M 46.3125 -76.609375 "/></g></g></g></g></g></g><g clip-path="url(#16b7fdbbb5)"><g clip-path="url(#8de9b5694d)"><g clip-path="url(#fd9d8ce157)"><g fill="#f5ecd7" fill-opacity="1"><g transform="translate(121.4843, 280.665104)"><g><path d="M 21.96875 -45.21875 C 26.800781 -45.207031 30.351562 -44.207031 32.625 -42.21875 C 34.894531 -40.238281 36.03125 -37.207031 36.03125 -33.125 L 35.96875 -3.234375 L 41.484375 -2.046875 L 41.484375 0.078125 L 29.328125 0.046875 L 28.4375 -4.375 C 24.851562 -0.800781 20.285156 0.976562 14.734375 0.96875 C 7.171875 0.945312 3.394531 -3.453125 3.40625 -12.234375 C 3.414062 -15.191406 3.992188 -17.628906 5.140625 -19.546875 C 6.285156 -21.472656 8.113281 -22.941406 10.625 -23.953125 C 13.144531 -24.972656 16.789062 -25.53125 21.5625 -25.625 L 28.203125 -25.796875 L 28.21875 -32.71875 C 28.21875 -35.757812 27.660156 -38.003906 26.546875 -39.453125 C 25.441406 -40.898438 23.726562 -41.628906 21.40625 -41.640625 C 18.269531 -41.640625 15.394531 -40.90625 12.78125 -39.4375 L 11.171875 -33.9375 L 8.53125 -33.9375 L 8.546875 -43.578125 C 13.640625 -44.671875 18.113281 -45.21875 21.96875 -45.21875 Z M 28.203125 -22.5 L 22.015625 -22.328125 C 17.804688 -22.171875 14.957031 -21.359375 13.46875 -19.890625 C 11.976562 -18.421875 11.226562 -15.960938 11.21875 -12.515625 C 11.207031 -6.984375 13.445312 -4.210938 17.9375 -4.203125 C 20.070312 -4.203125 21.914062 -4.441406 23.46875 -4.921875 C 25.03125 -5.410156 26.597656 -6.03125 28.171875 -6.78125 Z M 28.203125 -22.5 "/></g></g></g></g></g></g><g clip-path="url(#eb35dadc57)"><g clip-path="url(#dab10851df)"><g clip-path="url(#1c104ca02b)"><g fill="#f5ecd7" fill-opacity="1"><g transform="translate(177.424075, 280.762737)"><g/></g></g></g></g></g><g clip-path="url(#4f989fe57a)"><g clip-path="url(#6c03b6e370)"><g clip-path="url(#2cf70e17f0)"><g fill="#f5ecd7" fill-opacity="1"><g transform="translate(214.674992, 280.827752)"><g><path d="M 34.0625 -12.359375 C 34.0625 -7.972656 32.664062 -4.648438 29.875 -2.390625 C 27.09375 -0.140625 22.988281 0.976562 17.5625 0.96875 C 15.363281 0.96875 12.9375 0.738281 10.28125 0.28125 C 7.632812 -0.175781 5.554688 -0.691406 4.046875 -1.265625 L 4.0625 -12.140625 L 6.1875 -12.125 L 8.484375 -5.96875 C 10.828125 -3.832031 13.882812 -2.757812 17.65625 -2.75 C 23.75 -2.738281 26.800781 -5.335938 26.8125 -10.546875 C 26.820312 -14.378906 24.421875 -17.113281 19.609375 -18.75 L 15.421875 -20.125 C 12.253906 -21.164062 9.953125 -22.21875 8.515625 -23.28125 C 7.078125 -24.351562 5.960938 -25.664062 5.171875 -27.21875 C 4.390625 -28.78125 4.003906 -30.660156 4.015625 -32.859375 C 4.015625 -36.753906 5.34375 -39.820312 8 -42.0625 C 10.65625 -44.300781 14.242188 -45.414062 18.765625 -45.40625 C 22.003906 -45.394531 26.054688 -44.898438 30.921875 -43.921875 L 30.90625 -34.28125 L 28.6875 -34.28125 L 26.703125 -39.40625 C 25.054688 -40.882812 22.441406 -41.628906 18.859375 -41.640625 C 16.316406 -41.640625 14.375 -41.015625 13.03125 -39.765625 C 11.695312 -38.515625 11.03125 -36.820312 11.03125 -34.6875 C 11.03125 -32.894531 11.628906 -31.382812 12.828125 -30.15625 C 14.035156 -28.925781 15.863281 -27.90625 18.3125 -27.09375 C 22.925781 -25.507812 25.9375 -24.351562 27.34375 -23.625 C 28.757812 -22.90625 29.957031 -22.015625 30.9375 -20.953125 C 31.925781 -19.898438 32.695312 -18.695312 33.25 -17.34375 C 33.800781 -16 34.070312 -14.335938 34.0625 -12.359375 Z M 34.0625 -12.359375 "/></g></g></g></g></g></g></svg>